<?xml version="1.0" encoding="UTF-8"?>
<svg width="79px" height="100px" viewBox="0 0 79 100" version="1.1" xmlns="http://www.w3.org/2000/svg" xmlns:xlink="http://www.w3.org/1999/xlink" xmlns:sketch="http://www.bohemiancoding.com/sketch/ns">
    <title>IoT</title>
    <description>Created with Sketch (http://www.bohemiancoding.com/sketch)</description>
    <defs></defs>
    <g id="Page-1" stroke="none" stroke-width="1" fill="none" fill-rule="evenodd" sketch:type="MSPage">
        <path d="M46.7,60 C40.6,60 35.9,63 35.9,66.8 C35.9,70.6 40.6,73.6 46.7,73.6 C52.8,73.6 57.5,70.6 57.5,66.8 C57.5,63 52.8,60 46.7,60 L46.7,60 Z M46.7,71.4 C42,71.4 38.1,69.3 38.1,66.8 C38.1,64.3 42,62.2 46.7,62.2 C51.4,62.2 55.3,64.3 55.3,66.8 C55.3,69.3 51.4,71.4 46.7,71.4 L46.7,71.4 Z M78.3,21.1 C78.3,17.9 75.7,15.4 72.5,15.4 L57.7,15.4 C54.2,12.6 50.4,11 46.7,11 C42.9,11 38.9,12.7 35.4,15.7 L20.8,15.7 C17.6,15.7 15,18.4 15,21.6 L15,24.4 C15,26.4 16,28.1 17.5,29.1 L17.5,56.2 C17.5,58.8 18.9,61.2 21,62.6 C21.4,62.9 22.1,63.4 22.9,63.8 C22.9,63.8 22.9,63.8 22.9,63.9 C22.9,64.4 23,65 23,65.5 L23,65.5 C23,71.9 26.2,77.6 30.7,81.7 L30.7,81.8 L30.7,93.1 C30.7,97.1 38.7,99.2 46.6,99.2 C54.5,99.2 62.5,97.1 62.5,93.1 L62.5,81.5 L62.5,81.4 C67.1,77.3 70.2,71.6 70.2,65.2 L70.2,65.2 C70.3,64.7 70.3,64.1 70.3,63.6 C70.3,63.6 70.3,63.6 70.3,63.5 C71.1,63.1 71.9,62.6 72.2,62.3 C74.3,60.9 75.7,58.6 75.7,55.9 L75.7,28.6 C77.2,27.5 78.2,25.8 78.2,23.8 L78.3,21.1 L78.3,21.1 Z M46.7,13.1 C57.5,13.1 67.3,27.8 67.3,44 C67.3,48.1 66.6,52 65.4,55.5 L28,55.5 C26.8,52 26.1,48.1 26.1,44 C26.1,27.8 35.9,13.1 46.7,13.1 L46.7,13.1 Z M17,24.2 L17,21.4 C17,19.3 18.7,17.5 20.8,17.5 L33.3,17.5 C30.7,20.3 28.4,23.8 26.7,27.9 L20.9,27.9 C18.8,28 17.1,26.3 17,24.2 L17,24.2 Z M22.7,60.9 L22.2,60.5 C20.8,59.5 19.9,57.9 19.9,56 L19.9,29.9 C20.2,30 20.6,30 20.9,30 L25.9,30 C24.5,34.2 23.6,38.9 23.6,44 C23.6,48.4 24.3,52.6 25.6,56.3 L25.6,56.3 C24.4,57.8 23.6,59.5 23.2,61.2 C23.1,61.1 22.9,61 22.7,60.9 L22.7,60.9 Z M60.3,92.8 C60.3,94.4 55,96.6 46.7,96.6 C38.4,96.6 33.1,94.4 33.1,92.8 L33.1,83.1 C37.2,86.1 42.1,87.9 46.7,87.9 C51.3,87.9 56.2,86.1 60.3,83.1 L60.3,92.8 L60.3,92.8 Z M46.7,85.7 C37.6,85.7 30.1,79.5 26.9,72.3 C30.3,75.7 35.6,78.2 41.8,79.1 C41.8,79.1 46.3,79.8 51.4,79.1 C57.6,78.2 62.9,75.7 66.3,72.3 C63.3,79.5 55.8,85.7 46.7,85.7 L46.7,85.7 Z M46.7,77.3 C34.9,77.3 25.2,71.2 25.2,63.7 C25.2,61.6 26,59.5 27.4,57.7 L66,57.7 C67.4,59.5 68.2,61.5 68.2,63.7 C68.2,71.2 58.5,77.3 46.7,77.3 L46.7,77.3 Z M73.5,56 C73.5,57.8 72.6,59.4 71.2,60.5 L71.2,60.5 L70.7,60.9 C70.5,61 70.3,61.1 70.1,61.3 C69.7,59.6 68.9,57.9 67.7,56.4 L67.7,56.4 C69,52.6 69.7,48.5 69.7,44.1 C69.7,38.8 68.8,34 67.3,29.8 L72.6,29.8 C72.9,29.8 73.2,29.8 73.6,29.7 L73.6,56 L73.5,56 Z M72.6,27.7 L66.6,27.7 C64.9,23.6 62.5,20.1 59.9,17.3 L72.5,17.3 C74.6,17.3 76.3,18.9 76.3,21.1 L76.3,23.9 C76.4,25.9 74.7,27.7 72.6,27.7 L72.6,27.7 Z M22,24.4 C21.1,24.4 20.4,23.7 20.4,22.8 C20.4,21.9 21.1,21.2 22,21.2 L25.2,21.2 C26.1,21.2 26.8,21.9 26.8,22.8 C26.8,23.7 26.1,24.4 25.2,24.4 L22,24.4 L22,24.4 Z" id="Shape" fill="#000000" sketch:type="MSShapeGroup"></path>
        <g id="Shape-+-Shape-+-Shape" sketch:type="MSLayerGroup" transform="translate(10.820312, 11.136719) rotate(-45.000000) translate(-10.820312, -11.136719) translate(-2.679688, 4.136719)" fill="#000000">
            <path d="M13.644712,10.0000337 C11.2564612,9.99348142 8.96485226,10.9426771 7.28071202,12.6360337 C6.90173981,13.0284126 6.90715965,13.6521185 7.29289345,14.0378523 C7.67862724,14.4235861 8.30233313,14.4290059 8.69471202,14.0500337 C10.0074872,12.7371246 11.7880728,11.9995286 13.644712,11.9995286 C15.5013512,11.9995286 17.2819368,12.7371246 18.594712,14.0500337 C18.9870909,14.4290059 19.6107968,14.4235861 19.9965306,14.0378523 C20.3822644,13.6521185 20.3876842,13.0284126 20.008712,12.6360337 C18.3245718,10.9426771 16.0329629,9.99348142 13.644712,10.0000337 L13.644712,10.0000337 Z" id="Shape" sketch:type="MSShapeGroup"></path>
            <path d="M4.28071202,9.09522003 C3.90173981,9.48759892 3.90715965,10.1113048 4.29289345,10.4970386 C4.67862724,10.8827724 5.30233313,10.8881922 5.69471202,10.50922 C10.3839048,5.83046933 17.9755192,5.83046933 22.664712,10.50922 C22.9172988,10.7621641 23.2856426,10.8611406 23.630992,10.768866 C23.9763413,10.6765915 24.2462294,10.4070846 24.338992,10.061866 C24.4317546,9.71664744 24.3332988,9.34816407 24.080712,9.09522003 C18.6100606,3.63492666 9.75136339,3.63492666 4.28071202,9.09522003 L4.28071202,9.09522003 Z" id="Shape" sketch:type="MSShapeGroup"></path>
            <path d="M25.736712,6.96984765 C26.1290909,7.34881986 26.7527968,7.34340003 27.1385306,6.95766623 C27.5242644,6.57193243 27.5296842,5.94822654 27.150712,5.55584765 C19.7257384,-1.85194922 7.70568569,-1.85194922 0.280712021,5.55584765 C-0.0982601888,5.94822654 -0.0928403531,6.57193243 0.292893445,6.95766623 C0.678627244,7.34340003 1.30233313,7.34881986 1.69471202,6.96984765 C8.33822989,0.341712539 19.0931941,0.341712539 25.736712,6.96984765 L25.736712,6.96984765 Z" id="Shape" sketch:type="MSShapeGroup"></path>
        </g>
        <g id="Group" sketch:type="MSLayerGroup" transform="translate(32.000000, 29.000000)" fill="#000000">
            <path d="M20.3728814,1.18423789e-15 C17.7966102,1.18423789e-15 15.3898305,1.3 14,3.36666667 C12.6101695,1.3 10.2033898,0 7.62711864,0 C3.42372881,1.18423789e-15 0,3.36666667 0,7.5 C0,11.6333333 3.42372881,15 7.62711864,15 C10.2033898,15 12.6101695,13.7 14,11.6333333 C15.3898305,13.7 17.7966102,15 20.3728814,15 C24.5762712,15 28,11.6333333 28,7.5 C28,3.36666667 24.6101695,1.18423789e-15 20.3728814,1.18423789e-15 L20.3728814,1.18423789e-15 Z M20.1336971,13 C17.6439291,13 15.3587995,11.572973 14.3356071,9.4 L13.7216917,8.03783784 L13.1077763,9.4 C12.0845839,11.572973 9.83356071,13 7.30968622,13 C3.8308322,13 1,10.3081081 1,7 C1,3.69189189 3.8308322,1 7.30968622,1 C9.7994543,1 12.0845839,2.39459459 13.1077763,4.6 L13.7216917,5.96216216 L14.3356071,4.6 C15.3587995,2.42702703 17.6098226,1 20.1336971,1 C22.7598909,1 25.0450205,2.55675676 26,4.72972973 C25.3860846,4.24324324 24.6357435,3.91891892 23.7489768,3.91891892 C21.8731241,3.91891892 20.372442,5.37837838 20.372442,7.12972973 C20.372442,8.88108108 21.9072306,10.3405405 23.7489768,10.3405405 C24.4993179,10.3405405 25.1814461,10.1135135 25.7612551,9.72432432 C24.7039563,11.6702703 22.5893588,13 20.1336971,13 L20.1336971,13 Z" id="Shape" sketch:type="MSShapeGroup"></path>
            <circle id="Oval" sketch:type="MSShapeGroup" cx="10.5" cy="7.5" r="3.5"></circle>
        </g>
    </g>
</svg>